<?xml version="1.0" encoding="UTF-8"?><svg style=" fill: #1890ff;" xmlns="http://www.w3.org/2000/svg" xmlns:xlink="http://www.w3.org/1999/xlink" version="1.1" id="Layer_1" x="0px" y="0px" viewBox="0 0 128 128" xml:space="preserve"><style type="text/css">.st0{fill:#FFFFFF;}</style><path d="M64 127.7c-35.3 0-64-28.7-64-64s28.7-64 64-64 64 28.7 64 64c0 35.4-28.7 64-64 64z"/><path class="st0" d="M62.2 17.5c-.3 2.4-.5 4.4-.7 6.4-.9 6.7-.3 13.2 2.8 19.3 4.1 8.3 8 16.7 11.9 25.1 2.4 5.1 4.6 10.4 5.7 16 .5 2.6.3 5.1-1 7.5-3.9 6.8-9 12.5-15 17.4-.6.4-1.4.6-2.1.8 0-.7-.1-1.5.1-2.2.8-3.2 1.8-6.4 2.5-9.6.9-4.1.5-8.2-1.2-12.1-3.2-7-6.5-14-9.8-21-3.2-6.7-6.4-13.3-8.4-20.3-1-3.7-1.8-7.4 0-11.1 3.1-6.5 7.9-11.4 13.7-15.5.3-.3.7-.4 1.5-.7z" fill="#FFF"/><path class="st0" d="M33 27.4c0 .7.1 1.2 0 1.7-.5 4.1-1.1 8.2-.3 12.3.3 1.8.9 3.5 1.7 5.1 3.2 7 6.7 13.9 9.8 20.9 1.8 4 3.1 8.2 4.4 12.4.6 2 .3 4-.7 5.9-3 5.3-7.1 9.9-11.8 13.7-.4.4-1 .6-1.5.9-.1-.1-.2-.1-.4-.2.1-.6.1-1.3.3-1.9.6-2.5 1.4-5 1.9-7.6.7-3.1.4-6.3-1-9.2-2.9-6.4-5.9-12.8-8.9-19.2-2.3-4.9-4.5-9.8-5.7-15.2-.7-3.1-.3-5.9 1.3-8.5 2.4-4.1 5.6-7.4 9.4-10.2.3-.3.8-.5 1.5-.9z" fill="#FFF"/><path class="st0" d="M92.1 27.8c-.1 1.3-.3 2.5-.4 3.8-.5 3.6-.8 7.3.2 10.9.8 2.7 2 5.4 3.2 8 3.4 7.5 7 14.9 10.3 22.5 1.1 2.5 1.7 5.3 2.2 8 .2 1.3 0 2.9-.6 4.1-2.9 5.8-7.2 10.4-12.3 14.5-.4.3-.9.5-1.7.9.1-.9.1-1.5.3-2.1.7-3 1.5-6 2.1-9 .6-2.8 0-5.6-1.2-8.2-3-6.4-6-12.8-9-19.3-2.3-4.9-4.4-9.8-5.6-15.1-.7-3.1-.1-5.9 1.5-8.5 2.4-3.9 5.6-7.2 9.3-9.9.4-.3.9-.5 1.3-.7.2 0 .3 0 .4.1z" fill="#FFF"/><metadata><rdf:RDF xmlns:rdf="http://www.w3.org/1999/02/22-rdf-syntax-ns#" xmlns:rdfs="http://www.w3.org/2000/01/rdf-schema#" xmlns:dc="http://purl.org/dc/elements/1.1/"><rdf:Description about="https://iconscout.com/legal#licenses" dc:title="steem" dc:description="steem" dc:publisher="Iconscout" dc:date="2018-01-14" dc:format="image/svg+xml" dc:language="en"><dc:creator><rdf:Bag><rdf:li>Icon Mafia</rdf:li></rdf:Bag></dc:creator></rdf:Description></rdf:RDF></metadata></svg>
